<svg xmlns="http://www.w3.org/2000/svg" xmlns:xlink="http://www.w3.org/1999/xlink" width="22" height="18" viewBox="0 0 22 18"><defs><path id="a" d="M458.748 2073.481c.286 6.392-4.448 13.519-12.829 13.519-2.55 0-4.921-.752-6.919-2.042a9.037 9.037 0 0 0 6.683-1.881 4.521 4.521 0 0 1-4.216-3.157 4.509 4.509 0 0 0 2.038-.077c-2.172-.44-3.669-2.408-3.62-4.514a4.462 4.462 0 0 0 2.042.57c-2.008-1.353-2.578-4.025-1.397-6.068 2.227 2.75 5.553 4.558 9.304 4.748-.659-2.842 1.483-5.579 4.397-5.579a4.49 4.49 0 0 1 3.294 1.436 8.994 8.994 0 0 0 2.867-1.102 4.552 4.552 0 0 1-1.984 2.514 8.997 8.997 0 0 0 2.592-.716 9.257 9.257 0 0 1-2.252 2.35z"/></defs><use fill="#222" xlink:href="#a" transform="translate(-439 -2069)"/></svg>