<svg xmlns="http://www.w3.org/2000/svg" width="40" height="40" viewBox="0 0 1024 1024"><path d="M0 216.269C0 96.827 96.827 0 216.269 0h590.72c119.431.015 216.243 96.836 216.243 216.269v591.488c-.015 119.422-96.821 216.229-216.242 216.243H216.269C96.836 1024 .015 927.188 0 807.758v-.001zM511.616 870.4c197.734 0 358.016-160.461 358.016-358.4S709.35 153.6 511.616 153.6 153.6 314.061 153.6 512s160.282 358.4 358.016 358.4zM230.144 512c0-155.52 125.952-281.6 281.344-281.6S792.832 356.48 792.832 512 666.88 793.6 511.488 793.6 230.144 667.52 230.144 512z"/></svg>