<svg xmlns="http://www.w3.org/2000/svg" width="185" height="16" viewBox="0 0 11776 1024"><path d="M11309.12 12.8c284.096 0 466.752 191.936 466.752 505.664 0 301.44-182.656 492.736-466.752 492.736-297.024 0-479.68-191.232-479.68-492.736 0-313.728 183.296-505.664 479.68-505.664zm.448 192c-153.856 0-249.92 119.168-249.92 307.2s95.36 307.2 249.92 307.2c140.032 0 236.096-119.168 236.096-307.2s-96.064-307.2-236.096-307.2zm-607.68 780.8h-255.808V38.4h255.808zM9473.92 38.4h383.68c291.584 0 460.416 168.32 460.416 473.6 0 307.456-168.832 486.4-460.416 486.4h-383.68zm243.008 192v563.2h114.88c157.824 0 242.56-96 242.56-281.6 0-184.32-89.344-281.6-242.56-281.6h-114.88zm-986.304-192v591.104c0 111.36 59.904 177.6 167.936 177.6 107.328 0 167.232-66.304 167.232-177.6V38.4h241.664v616.96c0 214.72-161.92 355.84-408.96 355.84-247.552 0-409.536-141.12-409.536-355.84V38.4zm-599.872 947.2h-255.744V243.2H7619.2V38.4h767.36v204.8h-255.808zM6775.04 714.944h229.12c8.512 66.24 81.344 110.336 170.624 110.336 93.888 0 154.88-42.752 154.88-100.992 0-53.44-40-79.552-147.648-102.272l-124.032-24.768c-174.656-34.112-264.576-130.368-264.576-276.864 0-187.2 157.568-307.584 376.768-307.584 236.992 0 376.832 117.056 379.456 298.24h-221.888c-4.608-70.208-68.288-112.32-154.88-112.32-84.032 0-139.84 38.784-139.84 97.6 0 52.16 41.984 80.96 141.12 101.632l122.752 23.424C7483.968 458.176 7568 544.448 7568 696.896c0 191.936-155.584 314.304-399.744 314.304-241.6 0-390.592-108.992-393.216-296.256zM6199.616 985.6h-255.808V614.4h-358.08v371.2H5329.92V38.4h255.808v371.2h358.08V38.4h255.808zm-1416.128 25.6C4497.856 1011.2 4320 827.328 4320 511.68c0-315.008 179.2-498.88 463.488-498.88 241.344 0 424.512 155.968 431.744 384h-229.184c-11.904-113.664-96.128-187.392-202.56-187.392-132.224 0-216.192 114.368-216.192 301.568 0 189.248 83.328 303.616 216.832 303.616 106.496 0 186.688-74.368 201.92-187.392h229.184c-11.2 229.376-185.792 384-431.744 384zm-770.56-25.6h-255.744V652.8L3424.64 38.4h255.808l204.608 384 204.608-384h255.808l-332.544 614.4zM3334.784 38.4v947.2h-204.608V398.976L2899.968 985.6h-179.072l-230.208-586.624V985.6H2286.08V38.4h280.704l243.648 640 243.648-640zM1691.84 12.8c284.096 0 466.752 191.936 466.752 505.664 0 301.44-182.656 492.736-466.752 492.736-297.024 0-479.68-191.232-479.68-492.736 0-313.728 183.296-505.664 479.68-505.664zm.448 192c-153.856 0-249.92 119.168-249.92 307.2s95.36 307.2 249.92 307.2c140.032 0 236.096-119.168 236.096-307.2s-96.064-307.2-236.096-307.2zM917.952 985.6H662.208V243.2H406.4V38.4h767.36v204.8H917.952zm-639.744 0H22.4V38.4h255.808z"/></svg>