<svg xmlns="http://www.w3.org/2000/svg" xmlns:xlink="http://www.w3.org/1999/xlink" width="20" height="16" viewBox="0 0 20 16"><defs><path id="a" d="M459.962 1906v-.339l-1.558-1.542a.473.473 0 0 1-.178-.452v-11.334a.473.473 0 0 1 .178-.452l1.596-1.542V1890h-5.527l-3.94 9.905-4.483-9.905h-5.798v.339l1.868 2.266a.788.788 0 0 1 .251.659v8.908a1.03 1.03 0 0 1-.27.884l-2.101 2.567v.34h5.958v-.34l-2.102-2.567a1.072 1.072 0 0 1-.29-.884v-7.704l5.229 11.494h.608l4.49-11.494v9.161c0 .245 0 .293-.158.453l-1.615 1.58v.338h7.843z"/></defs><use fill="#222" xlink:href="#a" transform="translate(-440 -1890)"/></svg>