<svg xmlns="http://www.w3.org/2000/svg" xmlns:xlink="http://www.w3.org/1999/xlink" width="20" height="18" viewBox="0 0 20 18"><defs><path id="a" d="M444 1967h-4v-11.571h4zm-2.01-14.143h-.027c-1.191 0-1.963-.856-1.963-1.928 0-1.092.792-1.929 2.01-1.929 1.218 0 1.963.83 1.99 1.929 0 1.072-.772 1.928-2.01 1.928zM455.635 1967v-6.87c0-1.645-.635-2.77-2.214-2.77-1.207 0-1.921.758-2.238 1.492-.12.265-.151.625-.151.992V1967h-4.365v-12.563h4.365v1.748c.635-.837 1.627-2.042 3.936-2.042 2.865 0 5.032 1.748 5.032 5.517v7.34z"/></defs><use fill="#222" xlink:href="#a" transform="translate(-440 -1949)"/></svg>