<svg width="40" height="40" viewBox="0 0 40 40" xmlns="http://www.w3.org/2000/svg"><g fill="none"><path d="M8.455 0h23.09C36.215 0 40 3.782 40 8.448v23.104C40 36.218 36.215 40 31.545 40H8.455C3.785 40 0 36.218 0 31.552V8.448C0 3.782 3.785 0 8.455 0z" fill="#FFF"/><path d="M8.448 0h23.071a8.448 8.448 0 0 1 8.448 8.448v23.104A8.448 8.448 0 0 1 31.519 40H8.448A8.448 8.448 0 0 1 0 31.552V8.448A8.448 8.448 0 0 1 8.448 0zm11.535 34c7.726 0 13.989-6.268 13.989-14S27.709 6 19.983 6C12.258 6 5.995 12.268 5.995 20s6.263 14 13.988 14zm0-3c-6.07 0-10.99-4.925-10.99-11s4.92-11 10.99-11 10.991 4.925 10.991 11-4.92 11-10.99 11z" fill="#000"/></g></svg>